<svg xmlns="http://www.w3.org/2000/svg" xmlns:xlink="http://www.w3.org/1999/xlink" viewBox="0 0 38.65 70.46"><defs><style>.cls-1{fill:none;}.cls-2{fill:#fff9b4;}.cls-3{fill:#4b4a49;}.cls-4{fill:#c4e9fb;}.cls-5{clip-path:url(#clip-path);}.cls-6{fill:#fff;}</style><clipPath id="clip-path"><polygon class="cls-1" points="38.65 21.37 36.78 20.15 34.1 17.67 32.49 20.04 31.93 19.03 30.11 21.37 27.99 17.01 27.12 19.03 25.3 18.09 22.66 20.88 20.84 18.37 16.73 22.41 16.73 8.79 38.65 8.79 38.65 21.37"/></clipPath></defs><g id="Layer_2" data-name="Layer 2"><g id="Layer_1-2" data-name="Layer 1"><circle class="cls-2" cx="13.69" cy="13.69" r="13.69"/><path class="cls-3" d="M38.65,32V17.37c0-5.46-2.07-8.58-9.25-8.58H16.73V70.46H29.4c7.18,0,9.25-3.17,9.25-8.49V46.46c0-4.59-1.94-6.83-6.88-7.18V39.2C36.71,38.86,38.65,36.63,38.65,32ZM30.12,64.46H25.3V42.24h4.82Zm0-28.26H25.3V14.78h4.82Z"/><rect class="cls-4" x="25.3" y="42.24" width="4.81" height="22.22"/><rect class="cls-4" x="25.3" y="14.78" width="4.81" height="21.42"/><polyline class="cls-1" points="16.73 22.42 20.84 18.37 22.66 20.88 25.3 18.09 27.12 19.03 27.99 17.01 30.11 21.37 31.93 19.03 32.49 20.04 34.1 17.67 36.78 20.15 38.65 21.37"/><g class="cls-5"><path class="cls-6" d="M38.65,32V17.36c0-5.45-2.07-8.57-9.25-8.57H16.73V70.46H29.4c7.18,0,9.25-3.17,9.25-8.5V46.46c0-4.59-1.94-6.83-6.88-7.18V39.2C36.71,38.86,38.65,36.63,38.65,32ZM30.12,64.46H25.3V42.24h4.82Zm0-28.26H25.3V14.78h4.82Z"/><rect class="cls-6" x="25.3" y="42.24" width="4.81" height="22.22"/><rect class="cls-6" x="25.3" y="14.78" width="4.81" height="21.42"/></g></g></g></svg>