<svg xmlns="http://www.w3.org/2000/svg" xmlns:xlink="http://www.w3.org/1999/xlink" viewBox="0 0 498.43 283.91"><defs><style>.cls-1{fill:#231f20;}.cls-2,.cls-3,.cls-4,.cls-5{fill:none;stroke:#231f20;stroke-miterlimit:10;}.cls-2{stroke-width:10.75px;}.cls-3{stroke-width:12px;}.cls-4{stroke-width:13px;}.cls-5{stroke-width:9.77px;}.cls-6{fill:url(#linear-gradient);}.cls-7{fill:url(#linear-gradient-2);}.cls-8{fill:url(#linear-gradient-3);}.cls-9{fill:url(#linear-gradient-4);}.cls-10{fill:url(#linear-gradient-5);}.cls-11{fill:url(#linear-gradient-6);}.cls-12{fill:url(#linear-gradient-7);}.cls-13{fill:url(#linear-gradient-8);}.cls-14{fill:url(#linear-gradient-9);}.cls-15{fill:url(#linear-gradient-10);}.cls-16{fill:url(#linear-gradient-11);}.cls-17{fill:url(#linear-gradient-12);}.cls-18{fill:url(#linear-gradient-13);}</style><linearGradient id="linear-gradient" x1="381.56" y1="190.25" x2="381.56" y2="132.61" gradientUnits="userSpaceOnUse"><stop offset="0" stop-color="#d9d9d9"/><stop offset="1"/></linearGradient><linearGradient id="linear-gradient-2" x1="256.12" y1="180.34" x2="256.12" y2="132.37" gradientUnits="userSpaceOnUse"><stop offset="0" stop-color="#dcddde"/><stop offset="0.97"/></linearGradient><linearGradient id="linear-gradient-3" x1="254.17" y1="181.13" x2="254.17" y2="140.92" gradientUnits="userSpaceOnUse"><stop offset="0" stop-color="#dadbdc"/><stop offset="0.94"/></linearGradient><linearGradient id="linear-gradient-4" x1="301.71" y1="188.32" x2="301.53" y2="167.2" gradientUnits="userSpaceOnUse"><stop offset="0" stop-color="#515254"/><stop offset="0.97"/></linearGradient><linearGradient id="linear-gradient-5" x1="301.5" y1="152.66" x2="301.32" y2="130.96" gradientUnits="userSpaceOnUse"><stop offset="0" stop-color="#c7c8ca"/><stop offset="0.97"/></linearGradient><linearGradient id="linear-gradient-6" x1="96.17" y1="189.36" x2="95.99" y2="168.12" gradientUnits="userSpaceOnUse"><stop offset="0" stop-color="#bcbec0"/><stop offset="0.73"/></linearGradient><linearGradient id="linear-gradient-7" x1="95.96" y1="152.93" x2="95.78" y2="131.46" gradientUnits="userSpaceOnUse"><stop offset="0" stop-color="#c7c8ca"/><stop offset="0.85"/></linearGradient><linearGradient id="linear-gradient-8" x1="63.83" y1="330.16" x2="63.6" y2="303.17" xlink:href="#linear-gradient-6"/><linearGradient id="linear-gradient-9" x1="63.56" y1="283.86" x2="63.32" y2="256.6" gradientUnits="userSpaceOnUse"><stop offset="0" stop-color="#c7c8ca"/><stop offset="0.62"/></linearGradient><linearGradient id="linear-gradient-10" x1="455.72" y1="288.65" x2="455.49" y2="261.8" xlink:href="#linear-gradient-6"/><linearGradient id="linear-gradient-11" x1="455.45" y1="242.6" x2="455.22" y2="215.47" gradientUnits="userSpaceOnUse"><stop offset="0" stop-color="#c7c8ca"/><stop offset="0.65"/></linearGradient><linearGradient id="linear-gradient-12" x1="432.96" y1="259.75" x2="432.31" y2="208.61" gradientUnits="userSpaceOnUse"><stop offset="0" stop-color="#fff"/><stop offset="1"/></linearGradient><linearGradient id="linear-gradient-13" x1="432.05" y1="188.18" x2="431.4" y2="136.64" xlink:href="#linear-gradient"/></defs><g id="Layer_2" data-name="Layer 2"><g id="Layer_1-2" data-name="Layer 1"><path class="cls-1" d="M408.18,253.71a38.77,38.77,0,0,1-23.24,14.38,37.89,37.89,0,0,1-26.61-4.54,12.14,12.14,0,0,1-1.45-.91l-1.41-1a27.32,27.32,0,0,1-2.73-2.17l-.67-.58-.62-.63L350.23,257c-.8-.86-1.49-1.83-2.22-2.75a31.4,31.4,0,0,1-5.28-12.9,28.76,28.76,0,0,1-.38-3.47c-.07-1.16,0-2.33,0-3.49a31.8,31.8,0,0,1,1.24-6.84l.52-1.66c.19-.55.44-1.07.66-1.61s.44-1.07.7-1.58l.84-1.52a29.43,29.43,0,0,1,4.11-5.64,27.09,27.09,0,0,1,5.6-4.41,26.35,26.35,0,0,1,6.58-2.64,25.06,25.06,0,0,1,13.92.57,24.11,24.11,0,0,1,6.24,3.16,20.29,20.29,0,0,1,5.14,5,20.52,20.52,0,0,1,3.73,13.6,19.67,19.67,0,0,1-1.83,6.86,21.4,21.4,0,0,1-1.81,3.06,11.15,11.15,0,0,1-1.11,1.42,13.4,13.4,0,0,1-1.28,1.33,16.62,16.62,0,0,1-13.54,4.22,16.06,16.06,0,0,1-6.73-2.56,14.14,14.14,0,0,1-2.82-2.4,13.31,13.31,0,0,1-2.09-3.12,13.17,13.17,0,0,1-1.15-3.55,12.48,12.48,0,0,1-.14-3.71,13.48,13.48,0,0,1,2.68-6.81l4.38,3.25a7.83,7.83,0,0,0-.49,8.16,7.7,7.7,0,0,0,2.93,3,9.85,9.85,0,0,0,4.22,1.42,10,10,0,0,0,8-2.86,12.58,12.58,0,0,0,3.48-8.23,13,13,0,0,0-2.68-8.49,12.52,12.52,0,0,0-3.38-3,16.08,16.08,0,0,0-4.28-2,16.72,16.72,0,0,0-9.25,0,17.55,17.55,0,0,0-4.21,1.89,18.1,18.1,0,0,0-3.49,3,21.12,21.12,0,0,0-.66,26.38,22.94,22.94,0,0,0,7.29,6A26.61,26.61,0,0,0,398,246.15Z"/><line class="cls-2" x1="196.39" y1="214.49" x2="196.39" y2="268.3"/><path class="cls-2" d="M196.39,222.14a43.94,43.94,0,0,1,14-4.87c14.71-2.48,26.51,3.25,30.38,5.34"/><path class="cls-3" d="M453.72,218a46.43,46.43,0,0,0-28.66,21.55,47.59,47.59,0,0,0-5.88,29.14"/><path class="cls-3" d="M453.72,218a46.5,46.5,0,0,1-28.66-21.56,47.59,47.59,0,0,1-5.88-29.14"/><path class="cls-3" d="M457.57,218a46.43,46.43,0,0,1,28.66,21.55,47.51,47.51,0,0,1,5.88,29.14"/><path class="cls-3" d="M457.57,218a46.5,46.5,0,0,0,28.66-21.56,47.51,47.51,0,0,0,5.88-29.14"/><path class="cls-4" d="M60.5,261.71A65.79,65.79,0,0,1,38.87,250,83.46,83.46,0,0,1,16.11,220.5C4.9,196.74,6.21,173.22,7,164.78"/><path class="cls-4" d="M66.47,261.71A65.76,65.76,0,0,0,88.09,250a83.34,83.34,0,0,0,22.77-29.51c11.21-23.76,9.9-47.28,9.1-55.72"/><path class="cls-5" d="M292.06,225.42a31.53,31.53,0,0,0-.18,24.35A32.2,32.2,0,0,0,305.18,265"/><path class="cls-5" d="M292.06,225.42A31.54,31.54,0,0,1,268.61,232a32.25,32.25,0,0,1-18.15-8.85"/><path class="cls-5" d="M293.65,223.34a31.54,31.54,0,0,1,23.45-6.58,32.25,32.25,0,0,1,18.15,8.85"/><path class="cls-5" d="M293.65,223.34a31.53,31.53,0,0,0,.18-24.35,32.26,32.26,0,0,0-13.3-15.19"/><circle class="cls-5" cx="152.54" cy="239.58" r="23.43"/><path class="cls-1" d="M145.26,220.69a17,17,0,0,0-7.48,19.42l.27.9.36.88a13.48,13.48,0,0,0,.83,1.71,13.33,13.33,0,0,0,2.18,3,13.87,13.87,0,0,0,2.92,2.29,14.57,14.57,0,0,0,3.46,1.42,13.71,13.71,0,0,0,7.46-.16,13.35,13.35,0,0,0,1.79-.67c.55-.29,1.15-.57,1.66-.91a10.4,10.4,0,0,0,2.73-2.52,11,11,0,0,0,1.5-10.77,9.66,9.66,0,0,0-2-3.22,9,9,0,0,0-6.83-2.76,8.3,8.3,0,0,0-6.52,3.48,7.18,7.18,0,0,0-.33,7.35,5.78,5.78,0,0,0,2.73,2.62,6,6,0,0,0,3.82.35,5.15,5.15,0,0,0,3.15-2.16,4.68,4.68,0,0,0,.58-3.79A4,4,0,0,0,155,234.3a3.82,3.82,0,0,0-3.78.76,3.12,3.12,0,0,0-.59,3.77,2.56,2.56,0,0,0,1.58,1.28,2.62,2.62,0,0,0,2-.28,2.67,2.67,0,0,1-3.77-.91,3.42,3.42,0,0,1,.49-4.11,4.29,4.29,0,0,1,4.19-1,4.37,4.37,0,0,1,1.92,1.18,5.2,5.2,0,0,1,1.13,2,5.46,5.46,0,0,1-.5,4.44,6.12,6.12,0,0,1-3.62,2.72,7,7,0,0,1-8-3.3,8.8,8.8,0,0,1-1.2-4.46,8.89,8.89,0,0,1,4.66-7.73,10.91,10.91,0,0,1,4.46-1.38,11.22,11.22,0,0,1,8.69,3.12,12,12,0,0,1,2.65,3.92,13.59,13.59,0,0,1,1.14,4.57,14,14,0,0,1-2.52,9,13.48,13.48,0,0,1-3.39,3.39,19.24,19.24,0,0,1-2,1.23,16.11,16.11,0,0,1-2.19.92,17.31,17.31,0,0,1-9.41.58,18.58,18.58,0,0,1-4.51-1.63,18.14,18.14,0,0,1-3.91-2.83,17.46,17.46,0,0,1-3-3.77,15.09,15.09,0,0,1-1.12-2.1l-.5-1.08-.39-1.13a21.76,21.76,0,0,1-1-9.45,22.34,22.34,0,0,1,9.84-16Z"/><path class="cls-6" d="M391.56,130.09l-9.76,62.49a.16.16,0,0,1-.3,0l-9.94-62.5Z"/><line class="cls-7" x1="256.12" y1="134.38" x2="256.12" y2="181.55"/><path class="cls-8" d="M262.23,122.89l-6,59.11a.17.17,0,0,1-.33,0l-9.77-47.66Z"/><line class="cls-9" x1="301.31" y1="129.92" x2="301.31" y2="152.08"/><path class="cls-10" d="M311.31,129.92l-9.84,22.67a.17.17,0,0,1-.32,0l-9.84-22.67Z"/><line class="cls-11" x1="95.77" y1="130.43" x2="95.77" y2="152.72"/><path class="cls-12" d="M105.77,130.43l-9.69,22.33a.33.33,0,0,1-.62,0l-9.69-22.33Z"/><line class="cls-13" x1="63.31" y1="255.26" x2="63.31" y2="283.6"/><path class="cls-14" d="M73.5,255.26l-9.87,28.39a.32.32,0,0,1-.63,0l-9.88-28.39Z"/><line class="cls-15" x1="455.21" y1="214.14" x2="455.21" y2="242.33"/><path class="cls-16" d="M465.21,214.14l-9.69,28.25a.32.32,0,0,1-.62,0l-9.69-28.25Z"/><line class="cls-17" x1="431.67" y1="128.79" x2="431.67" y2="189.26"/><path class="cls-18" d="M441.24,131.17l-9.41,58.51a.17.17,0,0,1-.32,0l-10.13-60.89Z"/><path class="cls-1" d="M222.43,137a23.26,23.26,0,0,1-9.38-2c-14.2-6.25-19.24-25-11.46-42.65s25-26.61,39.18-20.36S260,97,252.24,114.68A39.66,39.66,0,0,1,236.45,133,27.85,27.85,0,0,1,222.43,137Zm8.92-46.91c-3.2,0-8.4,3.42-11.46,10.37-3.54,8-1.65,15,1.22,16.28,1.82.81,4.27-.42,5.23-1a19.81,19.81,0,0,0,7.59-9.11h0c3.55-8.05,1.65-15-1.21-16.28A3.42,3.42,0,0,0,231.35,90.08Z"/><path class="cls-1" d="M247.24,136a44.55,44.55,0,0,1-5.77-8.3C230.66,107.58,239,85.1,243,76.37l18.13,8.45c-2.8,6-8.6,21.28-2.06,33.47a24.34,24.34,0,0,0,3.16,4.54Z"/><rect class="cls-1" x="291.31" y="81.08" width="20" height="48.84"/><path class="cls-1" d="M114.87,136.56a67.74,67.74,0,0,1-22.41-3.79l-6.69-2.35V6.14l6.69-2.35a68.25,68.25,0,1,1,22.41,132.77Zm-9.1-20.86a48.28,48.28,0,1,0,0-94.84Z"/><rect class="cls-1" x="85.77" y="13.23" width="20" height="110.1"/><rect class="cls-1" x="371.56" y="26.93" width="20" height="103.16"/><path class="cls-1" d="M334.76,100.21c-3.4-2-10.33-5.13-18.47-3.63a24.6,24.6,0,0,0-8.3,3.16L297.7,82.59a44.64,44.64,0,0,1,15-5.69c14.51-2.65,26.4,2.66,32.19,6.06Z"/><path class="cls-1" d="M383.42,107.17l-3.73-19.65a46.71,46.71,0,0,0,11.72-3.82,33,33,0,0,0,11.48-8.89,18.28,18.28,0,0,0,4-14.43l19.76-3.1a38.37,38.37,0,0,1-8,29.85,53,53,0,0,1-18.49,14.55A66.57,66.57,0,0,1,383.42,107.17Z"/><path class="cls-1" d="M441.24,131.2l-19.86-2.4a27.39,27.39,0,0,0-3.56-17.28,28.35,28.35,0,0,0-9.09-9.22A29.78,29.78,0,0,0,400,98.59l4.79-19.41a49.49,49.49,0,0,1,14.65,6.22A48.43,48.43,0,0,1,435,101.21,47.61,47.61,0,0,1,441.24,131.2Z"/><path class="cls-1" d="M94.65,92.37s51-6.18,67.21,15.4c10.34,13.75-20.3,9.4-41.53,16.28-12.1,3.93-23.67,4.26-28.26-1.82C79.42,105.49,94.65,92.37,94.65,92.37Z"/><ellipse class="cls-1" cx="224.61" cy="115.59" rx="15.19" ry="5.86" transform="translate(-7.92 16.9) rotate(-4.23)"/><ellipse class="cls-1" cx="455.21" cy="210.99" rx="18.87" ry="4.73" transform="translate(-7.95 18.08) rotate(-2.26)"/><ellipse class="cls-1" cx="396.42" cy="81.64" rx="11.72" ry="5.86" transform="translate(-4.94 29.49) rotate(-4.23)"/></g></g></svg>