<svg xmlns="http://www.w3.org/2000/svg" viewBox="0 0 341.24 229.41"><defs><style>.cls-1{fill:#339a4b;}.cls-1,.cls-2,.cls-3{stroke:#000;stroke-miterlimit:10;}.cls-1,.cls-2{stroke-width:2.87px;}.cls-2{fill:#fcf352;}.cls-3{fill:none;stroke-width:5.74px;}</style></defs><g id="Layer_2" data-name="Layer 2"><g id="Layer_1-2" data-name="Layer 1"><path class="cls-1" d="M73.88,112.44l0,40.23H86.52l0-41.16-2.47-.22C80.7,112.43,78,112.45,73.88,112.44Z"/><path d="M150.39,155.19c-17.48,0-28.63-11.44-28.62-26.86s11.44-26.7,27.14-26.69S176,113.08,176,128.36v3.3l-42.12,0c1.09,8.54,6.73,13.77,16.51,13.78A28.6,28.6,0,0,0,169,138.68l5.92,7.58A37.93,37.93,0,0,1,150.39,155.19Zm-15.95-32.77,28.77,0c-1.78-6.89-6.74-11-14.31-11S136.23,115.54,134.44,122.42Z"/><path d="M199.14,113.65l0,39.09H187.83l0-39.09h-6v-9.5h6.06V76.61l11.3-6.88,0,34.42h6v9.5Z"/><path d="M247.57,150a26.27,26.27,0,0,1-16.38,5.22c-12,0-21.75-6.2-21.74-18,0-10.46,9.37-17.75,22.59-17.75a26.84,26.84,0,0,1,14.86,4c-.13-7.44-5-11.3-14.86-11.3a41.64,41.64,0,0,0-11.56,1.78l-2.06-9.08c6.74-1.79,10.32-2.34,16-2.34,16.38,0,23.81,8.83,23.8,19.84l0,30.42h-10.6Zm-.54-12.8c0-5.92-5.23-10.05-13.07-10.06-8,0-12.53,4.26-12.53,10S226,147.25,234,147.25C241.38,147.26,247,143.27,247,137.21Z"/><path d="M281.73,152.72H270.44V45.35h11.29Z"/><path d="M70.94,162.77H85.46c7.22,0,11.72,4.17,11.72,10.43s-4.08,10.41-11.34,10.4H77.78V194H70.92Zm14.57,14.76c3.08,0,4.68-1.77,4.68-4.33s-1.6-4.31-4.67-4.31H77.79v8.63Zm17.85-14.75,24.62,0V169h-17.8v5.46l12.51,0v6h-12.5v7.24H128V194H103.34ZM153.5,194,141.55,181V194h-6.86l0-31.2h14.86c7.22,0,11.78,3.68,11.77,9.94,0,6.09-3.69,9.29-10.44,9.51L162.62,194Zm-11.95-17.43h8.55c2.59,0,4.24-1.28,4.24-3.85s-1.64-3.81-4.24-3.81h-8.55Zm26.79-13.76h23.84v6.22h-17v5.46l11.71,0v6H175.14V194h-6.81Zm29.54,0H222.5v6.22h-17.8v5.45l12.5,0v6h-12.5v7.24h17.84v6.23l-24.66,0ZM226,178.49c0-9.1,7.28-16.23,16.76-16.23a16.85,16.85,0,0,1,13.07,5.94l-5.26,4.11a9.93,9.93,0,0,0-7.83-3.64,9.82,9.82,0,1,0,0,19.63,9.92,9.92,0,0,0,7.92-3.75l5.33,4a16.8,16.8,0,0,1-13.24,6.1C233.21,194.67,225.94,187.59,226,178.49Zm42.86-9.39H258.9l0-6.23,26.6,0v6.22h-9.9l0,25H268.8Z"/><path class="cls-2" d="M91,95.93s-8.94,8.74-7.33,19,9.62,20.11,11.89,18.33,7.6-12.11,6.3-18.43S100.87,99.17,91,95.93Z"/><path class="cls-2" d="M82.14,93.93s-12,3.48-15.45,13.33-1,22.27,1.82,21.77,12.42-7.09,14.26-13.27S89.33,101.45,82.14,93.93Z"/><path class="cls-2" d="M75.93,86.74s-12.47-.93-19.13,7.1-8.73,20.51-5.89,21,14.11-2.3,18-7.46S80,96.29,75.93,86.74Z"/><path class="cls-2" d="M100.73,93.17s-4.61,11.62,1.07,20.38,17,14.45,18.32,11.9,2-14.16-1.75-19.4S111.08,92.1,100.73,93.17Z"/><path class="cls-2" d="M107.4,86s.35,12.5,9,18.3,21.3,6.56,21.53,3.69-3.74-13.8-9.27-17.13S116.48,80.88,107.4,86Z"/><path class="cls-2" d="M91.9,69.83s-9.6-8-8.79-18.42,8-20.8,10.42-19.2,8.53,11.48,7.72,17.88S101.51,65.83,91.9,69.83Z"/><path class="cls-2" d="M83.24,72.52S71,70,66.8,60.44s-2.75-22.13.12-21.85,12.94,6.09,15.25,12.12S89.83,64.46,83.24,72.52Z"/><path class="cls-2" d="M100.24,75s-5.51-11.23-.53-20.4S115.5,38.88,117,41.32s3.12,14-.22,19.48S110.64,75.28,100.24,75Z"/><path class="cls-2" d="M77.61,80.17S65.26,82.07,58,74.59s-10.3-19.77-7.52-20.51,14.25,1.19,18.52,6S81,70.32,77.61,80.17Z"/><path class="cls-2" d="M76.61,83.68s-8.5,9.17-18.85,7.81S37.4,82.39,39.13,80.08,51,72.17,57.39,73.31,73.12,73.88,76.61,83.68Z"/><path class="cls-2" d="M109.05,78.49s-.62-12.49,7.57-18.95,20.73-8.21,21.18-5.36-2.65,14.05-7.9,17.8S118.5,82.84,109.05,78.49Z"/><path class="cls-2" d="M111.74,81.51S119,71.31,129.4,71.29s21.37,6.34,20,8.86-10.77,9.41-17.22,9.12S116.48,90.77,111.74,81.51Z"/><circle cx="93.67" cy="83.47" r="19.25"/><rect class="cls-3" x="2.87" y="2.87" width="335.51" height="223.67"/><line class="cls-3" x1="24.39" y1="62.82" x2="24.39" y2="22.77"/><line class="cls-3" x1="71.36" y1="22.77" x2="21.54" y2="22.77"/><line class="cls-3" x1="316.66" y1="62.82" x2="316.66" y2="22.77"/><line class="cls-3" x1="269.69" y1="22.77" x2="319.51" y2="22.77"/><line class="cls-3" x1="24.39" y1="166.59" x2="24.39" y2="206.64"/><line class="cls-3" x1="71.36" y1="206.64" x2="21.54" y2="206.64"/><line class="cls-3" x1="316.85" y1="166.59" x2="316.85" y2="206.64"/><line class="cls-3" x1="269.88" y1="206.64" x2="319.7" y2="206.64"/></g></g></svg>