<svg xmlns="http://www.w3.org/2000/svg" viewBox="0 0 155.17 117.85"><defs><style>.cls-1{fill:#1c1b1a;}.cls-2{fill:#78559d;}.cls-2,.cls-3,.cls-4,.cls-5,.cls-6,.cls-7{stroke:#1c1b1a;stroke-miterlimit:10;stroke-width:1.63px;}.cls-10,.cls-2,.cls-5,.cls-6,.cls-7,.cls-8,.cls-9{opacity:0.6;}.cls-3{fill:none;}.cls-4{fill:#00afe4;opacity:0.61;}.cls-5{fill:#009f42;}.cls-6{fill:#ffe900;}.cls-7{fill:#d11a19;}.cls-8{fill:#f38f03;}.cls-9{fill:#b61981;}.cls-10{fill:#008d82;}</style></defs><g id="Layer_2" data-name="Layer 2"><g id="Layer_1-2" data-name="Layer 1"><path class="cls-1" d="M1,112.87a4.86,4.86,0,0,1,5.09-5,4.87,4.87,0,0,1,4.8,3.2H9.28a3.36,3.36,0,0,0-3.15-1.82,3.6,3.6,0,0,0,0,7.19A3.35,3.35,0,0,0,9.62,114H5.55v-1.37h5.66v.73a4.85,4.85,0,0,1-5.08,4.49A4.86,4.86,0,0,1,1,112.87Z"/><path class="cls-1" d="M15.28,108.09h4.11c2.36,0,3.38,1.3,3.38,3.07a2.77,2.77,0,0,1-2.18,2.94l2.54,3.56H21.34l-2.28-3.42H16.78v3.42h-1.5Zm4.13,4.77c1.39,0,1.86-.73,1.86-1.7s-.49-1.69-1.86-1.69H16.78v3.39Z"/><path class="cls-1" d="M26.9,112A3.78,3.78,0,0,1,31,107.9,3.8,3.8,0,0,1,35.23,112v5.63H33.74v-3H28.35v3H26.9Zm6.84,1.23V112a2.46,2.46,0,0,0-2.7-2.75A2.45,2.45,0,0,0,28.35,112v1.23Z"/><path class="cls-1" d="M39.65,108.09h4c2.41,0,3.48,1.33,3.48,3.15s-1.07,3.16-3.48,3.16H41.14v3.26H39.65Zm4,4.93c1.43,0,2-.76,2-1.78s-.52-1.77-2-1.77H41.14V113Z"/><path class="cls-1" d="M51.11,108.09H52.6v4h5.34v-4h1.5v9.57h-1.5v-4.17H52.6v4.17H51.11Z"/><path class="cls-1" d="M64.11,108.09H65.6v9.57H64.11Z"/><path class="cls-1" d="M69.78,112.87a5.13,5.13,0,0,1,10-1.43H78.2a3.6,3.6,0,1,0,0,2.87h1.58a5.13,5.13,0,0,1-10-1.44Z"/><path class="cls-1" d="M90.51,108.09h3.41c3.33,0,5.09,1.92,5.09,4.78s-1.76,4.79-5.09,4.79H90.51Zm3.41,8.19c2.44,0,3.58-1.34,3.58-3.41s-1.14-3.4-3.58-3.4H92v6.81Z"/><path class="cls-1" d="M103.17,108.09h7v1.38h-5.55v2.63h4.7v1.37h-4.7v2.81h5.55v1.38h-7Z"/><path class="cls-1" d="M114,114.92h1.48c0,.94.75,1.55,2,1.55s2.08-.61,2.08-1.55-1-1.17-2.18-1.37c-1.5-.27-3.21-.56-3.21-2.71,0-1.74,1.32-2.94,3.32-2.94s3.28,1.14,3.34,2.85H119.5c0-.85-.7-1.47-1.89-1.47s-1.91.64-1.91,1.52,1,1.17,2.19,1.37c1.51.27,3.22.56,3.22,2.71,0,1.83-1.4,3-3.54,3S114.09,116.74,114,114.92Z"/><path class="cls-1" d="M125.31,108.09h1.49v9.57h-1.49Z"/><path class="cls-1" d="M131,112.87a5.14,5.14,0,0,1,9.89-1.77h-1.65a3.36,3.36,0,0,0-3.15-1.82,3.6,3.6,0,0,0,0,7.19,3.34,3.34,0,0,0,3.48-2.47H135.5v-1.37h5.66v.73a5.1,5.1,0,0,1-10.17-.49Z"/><path class="cls-1" d="M145,111.86a4,4,0,0,1,8.09,0v5.8h-1.49v-5.8a2.56,2.56,0,1,0-5.11,0v5.8H145Z"/><path class="cls-2" d="M101.33,10.05h27.4c15.7,0,22.52,8.68,22.52,20.48,0,9.55-4.48,17.06-14.53,19.6l16.87,23.69H141.7L126.48,51H111.27V73.82h-9.94Zm27.49,31.79c9.27,0,12.39-4.88,12.39-11.31S138,19.21,128.82,19.21H111.27V41.84Z"/><path class="cls-3" d="M101.33,10.05h27.4c15.7,0,22.52,8.68,22.52,20.48,0,9.55-4.48,17.06-14.53,19.6l16.87,23.69H141.7L126.48,51H111.27V73.82h-9.94Zm27.49,31.79c9.27,0,12.39-4.88,12.39-11.31S138,19.21,128.82,19.21H111.27V41.84Z"/><path class="cls-4" d="M84.83,3.56h46.9v9.16H94.78V30.27h31.3v9.17H94.78V58.16h36.95v9.17H84.83Z"/><path class="cls-3" d="M84.83,3.56h46.9v9.16H94.78V30.27h31.3v9.17H94.78V58.16h36.95v9.17H84.83Z"/><path class="cls-5" d="M67.45,16.05H47.27V6.88H97.68v9.17H77.4v54.6h-10Z"/><path class="cls-3" d="M67.45,16.05H47.27V6.88H97.68v9.17H77.4v54.6h-10Z"/><path class="cls-6" d="M28.51.81h46.9V10h-37V27.53h31.3V36.7H38.45V55.42h37v9.16H28.51Z"/><path class="cls-3" d="M28.51.81h46.9V10h-37V27.53h31.3V36.7H38.45V55.42h37v9.16H28.51Z"/><path class="cls-7" d="M.81,5.49H27.53c16.09,0,23.21,8.87,23.21,21S43.62,47.51,27.53,47.51H10.76V69.26H.81ZM27.72,38.35c9.56,0,13-5.07,13-11.9s-3.41-11.8-13-11.8h-17v23.7Z"/><path class="cls-3" d="M.81,5.49H27.53c16.09,0,23.21,8.87,23.21,21S43.62,47.51,27.53,47.51H10.76V69.26H.81ZM27.72,38.35c9.56,0,13-5.07,13-11.9s-3.41-11.8-13-11.8h-17v23.7Z"/><path class="cls-1" d="M.52,93.82h3C3.62,95.74,5.1,97,7.77,97S12,95.74,12,93.82c0-2.08-2.1-2.41-4.48-2.83C4.49,90.45,1,89.85,1,85.42c0-3.58,2.71-6,6.83-6s6.74,2.34,6.86,5.86H11.74c-.09-1.74-1.44-3-3.88-3s-3.94,1.33-3.94,3.13c0,2.08,2.14,2.41,4.51,2.83,3.1.54,6.62,1.14,6.62,5.57,0,3.76-2.89,6.11-7.28,6.11S.61,97.55.52,93.82Z"/><path class="cls-1" d="M17.13,89.61c0-5.9,4.33-10.23,10.47-10.23s10.47,4.33,10.47,10.23S33.74,99.84,27.6,99.84,17.13,95.5,17.13,89.61Zm17.84,0A7.1,7.1,0,0,0,27.6,82.2,7.41,7.41,0,0,0,27.6,97,7.1,7.1,0,0,0,35,89.61Z"/><path class="cls-8" d="M35,89.61A7.1,7.1,0,0,1,27.6,97a7.4,7.4,0,0,1,0-14.8A7.1,7.1,0,0,1,35,89.61Z"/><path class="cls-1" d="M52,92.13c3.09-.78,4.48-3.1,4.48-6,0-3.64-2.11-6.33-6.95-6.33H41.11V99.44h3.06v-7h4.69l4.7,7h3.67Zm-7.86-2.55v-7h5.42c2.83,0,3.82,1.48,3.82,3.5s-1,3.49-3.82,3.49Z"/><path class="cls-9" d="M53.41,86.09c0,2-1,3.49-3.82,3.49H44.17v-7h5.42C52.42,82.59,53.41,84.07,53.41,86.09Z"/><path class="cls-1" d="M60,79.77H74.44V82.6H63V88h9.65v2.83H63v5.78h11.4v2.82H60Z"/><path class="cls-1" d="M77.39,87.53c0-5,3-8.15,8.3-8.15S94,82.53,94,87.53V99.44H91V87.53c0-3.31-1.8-5.33-5.26-5.33s-5.24,2-5.24,5.33V99.44H77.39Z"/><path class="cls-1" d="M96.58,93.82h3c.06,1.92,1.53,3.19,4.21,3.19s4.27-1.27,4.27-3.19c0-2.08-2.1-2.41-4.48-2.83-3.07-.54-6.59-1.14-6.59-5.57,0-3.58,2.71-6,6.83-6s6.74,2.34,6.86,5.86H107.8c-.09-1.74-1.44-3-3.88-3S100,83.53,100,85.33c0,2.08,2.13,2.41,4.51,2.83,3.1.54,6.62,1.14,6.62,5.57,0,3.76-2.89,6.11-7.28,6.11S96.67,97.55,96.58,93.82Z"/><path class="cls-1" d="M123.66,79.37c-6.14,0-10.47,4.34-10.47,10.23s4.33,10.24,10.47,10.24,10.46-4.34,10.46-10.24S129.79,79.37,123.66,79.37Zm0,17.64A7.41,7.41,0,1,1,131,89.6,7.11,7.11,0,0,1,123.66,97Z"/><path class="cls-10" d="M131,89.6a7.38,7.38,0,1,1-7.37-7.4A7.1,7.1,0,0,1,131,89.6Z"/><path class="cls-1" d="M136.71,87.53c0-5,3-8.15,8.3-8.15s8.34,3.15,8.34,8.15V99.44h-3.07V87.53c0-3.31-1.8-5.33-5.27-5.33s-5.23,2-5.23,5.33V99.44h-3.07Z"/></g></g></svg>